<mxfile host="app.diagrams.net" modified="2022-04-07T05:34:49.823Z" agent="5.0 (Macintosh; Intel Mac OS X 10_15_7) AppleWebKit/605.1.15 (KHTML, like Gecko) Version/15.4 Safari/605.1.15" etag="hfALOMKQv-vmX8lNf3JB" version="17.4.0" type="github">
  <diagram id="f7igN_PYlKPxjjrSWDxX" name="Page-1">
    <mxGraphModel dx="1298" dy="865" grid="1" gridSize="10" guides="1" tooltips="1" connect="1" arrows="1" fold="1" page="1" pageScale="1" pageWidth="827" pageHeight="1169" math="0" shadow="0">
      <root>
        <mxCell id="0" />
        <mxCell id="1" parent="0" />
        <mxCell id="fjqLG9jufIr7hQlXoKtr-2" style="edgeStyle=orthogonalEdgeStyle;rounded=0;orthogonalLoop=1;jettySize=auto;html=1;exitX=0.5;exitY=1;exitDx=0;exitDy=0;entryX=0.5;entryY=0;entryDx=0;entryDy=0;" parent="1" source="402RmO6OI47TIIfogovb-1" target="fjqLG9jufIr7hQlXoKtr-1" edge="1">
          <mxGeometry relative="1" as="geometry" />
        </mxCell>
        <mxCell id="fjqLG9jufIr7hQlXoKtr-4" style="edgeStyle=orthogonalEdgeStyle;rounded=0;orthogonalLoop=1;jettySize=auto;html=1;exitX=0.5;exitY=1;exitDx=0;exitDy=0;" parent="1" source="402RmO6OI47TIIfogovb-1" target="fjqLG9jufIr7hQlXoKtr-3" edge="1">
          <mxGeometry relative="1" as="geometry" />
        </mxCell>
        <mxCell id="402RmO6OI47TIIfogovb-1" value="I/O from terminal" style="rounded=0;whiteSpace=wrap;html=1;" parent="1" vertex="1">
          <mxGeometry x="180" y="180" width="120" height="60" as="geometry" />
        </mxCell>
        <mxCell id="fjqLG9jufIr7hQlXoKtr-1" value="input()" style="whiteSpace=wrap;html=1;" parent="1" vertex="1">
          <mxGeometry x="110" y="320" width="120" height="60" as="geometry" />
        </mxCell>
        <mxCell id="fjqLG9jufIr7hQlXoKtr-3" value="print()" style="whiteSpace=wrap;html=1;" parent="1" vertex="1">
          <mxGeometry x="250" y="320" width="120" height="60" as="geometry" />
        </mxCell>
        <mxCell id="fjqLG9jufIr7hQlXoKtr-7" style="edgeStyle=orthogonalEdgeStyle;rounded=0;orthogonalLoop=1;jettySize=auto;html=1;exitX=0.5;exitY=1;exitDx=0;exitDy=0;entryX=0.5;entryY=0;entryDx=0;entryDy=0;" parent="1" source="fjqLG9jufIr7hQlXoKtr-5" target="fjqLG9jufIr7hQlXoKtr-6" edge="1">
          <mxGeometry relative="1" as="geometry" />
        </mxCell>
        <mxCell id="fjqLG9jufIr7hQlXoKtr-5" value="The &lt;br&gt;Zen of Python" style="whiteSpace=wrap;html=1;" parent="1" vertex="1">
          <mxGeometry x="440" y="180" width="120" height="60" as="geometry" />
        </mxCell>
        <mxCell id="fjqLG9jufIr7hQlXoKtr-6" value="import this" style="whiteSpace=wrap;html=1;" parent="1" vertex="1">
          <mxGeometry x="440" y="320" width="120" height="60" as="geometry" />
        </mxCell>
        <mxCell id="fjqLG9jufIr7hQlXoKtr-10" style="edgeStyle=orthogonalEdgeStyle;rounded=0;orthogonalLoop=1;jettySize=auto;html=1;exitX=0.5;exitY=1;exitDx=0;exitDy=0;" parent="1" source="fjqLG9jufIr7hQlXoKtr-8" target="fjqLG9jufIr7hQlXoKtr-9" edge="1">
          <mxGeometry relative="1" as="geometry" />
        </mxCell>
        <mxCell id="fjqLG9jufIr7hQlXoKtr-8" value="pip usage" style="whiteSpace=wrap;html=1;" parent="1" vertex="1">
          <mxGeometry x="640" y="180" width="120" height="60" as="geometry" />
        </mxCell>
        <mxCell id="fjqLG9jufIr7hQlXoKtr-9" value="&amp;gt;_ pip" style="whiteSpace=wrap;html=1;" parent="1" vertex="1">
          <mxGeometry x="640" y="320" width="120" height="60" as="geometry" />
        </mxCell>
        <mxCell id="fjqLG9jufIr7hQlXoKtr-13" style="edgeStyle=orthogonalEdgeStyle;rounded=0;orthogonalLoop=1;jettySize=auto;html=1;exitX=0.5;exitY=1;exitDx=0;exitDy=0;entryX=0.5;entryY=0;entryDx=0;entryDy=0;" parent="1" source="fjqLG9jufIr7hQlXoKtr-11" target="fjqLG9jufIr7hQlXoKtr-12" edge="1">
          <mxGeometry relative="1" as="geometry" />
        </mxCell>
        <mxCell id="fjqLG9jufIr7hQlXoKtr-11" value="Кодировка файла" style="whiteSpace=wrap;html=1;" parent="1" vertex="1">
          <mxGeometry x="860" y="180" width="120" height="60" as="geometry" />
        </mxCell>
        <mxCell id="fjqLG9jufIr7hQlXoKtr-20" style="edgeStyle=orthogonalEdgeStyle;rounded=0;orthogonalLoop=1;jettySize=auto;html=1;exitX=0.5;exitY=1;exitDx=0;exitDy=0;entryX=0;entryY=0.5;entryDx=0;entryDy=0;" parent="1" source="fjqLG9jufIr7hQlXoKtr-12" target="fjqLG9jufIr7hQlXoKtr-17" edge="1">
          <mxGeometry relative="1" as="geometry" />
        </mxCell>
        <mxCell id="fjqLG9jufIr7hQlXoKtr-12" value="# -*- coding: encoding -*-&lt;br&gt;(module codecs)" style="whiteSpace=wrap;html=1;" parent="1" vertex="1">
          <mxGeometry x="840" y="320" width="160" height="60" as="geometry" />
        </mxCell>
        <mxCell id="fjqLG9jufIr7hQlXoKtr-16" style="edgeStyle=orthogonalEdgeStyle;rounded=0;orthogonalLoop=1;jettySize=auto;html=1;exitX=0.5;exitY=1;exitDx=0;exitDy=0;entryX=0.5;entryY=0;entryDx=0;entryDy=0;" parent="1" source="fjqLG9jufIr7hQlXoKtr-14" target="fjqLG9jufIr7hQlXoKtr-15" edge="1">
          <mxGeometry relative="1" as="geometry" />
        </mxCell>
        <mxCell id="fjqLG9jufIr7hQlXoKtr-14" value="shebang" style="whiteSpace=wrap;html=1;" parent="1" vertex="1">
          <mxGeometry x="1060" y="180" width="120" height="60" as="geometry" />
        </mxCell>
        <mxCell id="fjqLG9jufIr7hQlXoKtr-19" style="edgeStyle=orthogonalEdgeStyle;rounded=0;orthogonalLoop=1;jettySize=auto;html=1;exitX=0.5;exitY=1;exitDx=0;exitDy=0;entryX=1;entryY=0.5;entryDx=0;entryDy=0;" parent="1" source="fjqLG9jufIr7hQlXoKtr-15" target="fjqLG9jufIr7hQlXoKtr-17" edge="1">
          <mxGeometry relative="1" as="geometry" />
        </mxCell>
        <mxCell id="fjqLG9jufIr7hQlXoKtr-15" value="#!/usr/bin/env python3" style="whiteSpace=wrap;html=1;" parent="1" vertex="1">
          <mxGeometry x="1040" y="320" width="160" height="60" as="geometry" />
        </mxCell>
        <mxCell id="fjqLG9jufIr7hQlXoKtr-17" value="&lt;div style=&quot;text-align: left&quot;&gt;#!/usr/bin/env python3&lt;/div&gt;&lt;div style=&quot;text-align: left&quot;&gt;# -*- coding: encoding -*-&lt;/div&gt;" style="whiteSpace=wrap;html=1;" parent="1" vertex="1">
          <mxGeometry x="940" y="440" width="160" height="60" as="geometry" />
        </mxCell>
        <mxCell id="fjqLG9jufIr7hQlXoKtr-23" style="edgeStyle=orthogonalEdgeStyle;rounded=0;orthogonalLoop=1;jettySize=auto;html=1;exitX=0.5;exitY=1;exitDx=0;exitDy=0;entryX=0.5;entryY=0;entryDx=0;entryDy=0;" parent="1" source="fjqLG9jufIr7hQlXoKtr-21" target="fjqLG9jufIr7hQlXoKtr-22" edge="1">
          <mxGeometry relative="1" as="geometry" />
        </mxCell>
        <mxCell id="fjqLG9jufIr7hQlXoKtr-21" value="exec(object, globals, locals)" style="whiteSpace=wrap;html=1;" parent="1" vertex="1">
          <mxGeometry x="1241" y="180" width="199.5" height="60" as="geometry" />
        </mxCell>
        <mxCell id="fjqLG9jufIr7hQlXoKtr-22" value="exec object in globals, locals" style="whiteSpace=wrap;html=1;" parent="1" vertex="1">
          <mxGeometry x="1240.5" y="320" width="199" height="60" as="geometry" />
        </mxCell>
        <mxCell id="fjqLG9jufIr7hQlXoKtr-24" value="Игнорируемые исключения" style="whiteSpace=wrap;html=1;" parent="1" vertex="1">
          <mxGeometry x="120" y="580" width="200" height="60" as="geometry" />
        </mxCell>
        <mxCell id="fjqLG9jufIr7hQlXoKtr-25" value="&lt;font style=&quot;font-size: 20px&quot;&gt;!&lt;/font&gt;" style="text;html=1;strokeColor=none;fillColor=none;align=center;verticalAlign=middle;whiteSpace=wrap;rounded=0;" parent="1" vertex="1">
          <mxGeometry x="30" y="595" width="60" height="30" as="geometry" />
        </mxCell>
        <mxCell id="fjqLG9jufIr7hQlXoKtr-26" value="sys.maxint(maxsize)" style="whiteSpace=wrap;html=1;fontSize=12;fontStyle=0" parent="1" vertex="1">
          <mxGeometry x="1480" y="180" width="120" height="60" as="geometry" />
        </mxCell>
        <mxCell id="fjqLG9jufIr7hQlXoKtr-27" value="Идентичность встроенных типов (is и id)" style="whiteSpace=wrap;html=1;fontSize=12;" parent="1" vertex="1">
          <mxGeometry x="120" y="680" width="200" height="60" as="geometry" />
        </mxCell>
        <mxCell id="fjqLG9jufIr7hQlXoKtr-28" value="docker &amp;nbsp;run - it python:3.x&lt;br&gt;x means latest" style="whiteSpace=wrap;html=1;fontSize=12;" parent="1" vertex="1">
          <mxGeometry x="1640" y="180" width="160" height="60" as="geometry" />
        </mxCell>
        <mxCell id="fjqLG9jufIr7hQlXoKtr-29" value="eggs &amp;amp; wheels" style="whiteSpace=wrap;html=1;fontSize=12;" parent="1" vertex="1">
          <mxGeometry x="1840" y="180" width="120" height="60" as="geometry" />
        </mxCell>
        <mxCell id="fjqLG9jufIr7hQlXoKtr-33" style="edgeStyle=orthogonalEdgeStyle;rounded=0;orthogonalLoop=1;jettySize=auto;html=1;exitX=0.5;exitY=1;exitDx=0;exitDy=0;entryX=0.5;entryY=0;entryDx=0;entryDy=0;fontSize=12;" parent="1" source="fjqLG9jufIr7hQlXoKtr-30" target="fjqLG9jufIr7hQlXoKtr-32" edge="1">
          <mxGeometry relative="1" as="geometry" />
        </mxCell>
        <mxCell id="fjqLG9jufIr7hQlXoKtr-30" value="&amp;gt;_&amp;nbsp;python [-bBdEhiIOqsSuvVWx?] [-c command | -m module-name | script | - ] [args]" style="whiteSpace=wrap;html=1;fontSize=12;" parent="1" vertex="1">
          <mxGeometry x="2000" y="180" width="480" height="60" as="geometry" />
        </mxCell>
        <mxCell id="fjqLG9jufIr7hQlXoKtr-35" style="edgeStyle=orthogonalEdgeStyle;rounded=0;orthogonalLoop=1;jettySize=auto;html=1;exitX=0.5;exitY=1;exitDx=0;exitDy=0;entryX=0.5;entryY=0;entryDx=0;entryDy=0;fontSize=12;" parent="1" source="fjqLG9jufIr7hQlXoKtr-32" target="fjqLG9jufIr7hQlXoKtr-34" edge="1">
          <mxGeometry relative="1" as="geometry" />
        </mxCell>
        <mxCell id="fjqLG9jufIr7hQlXoKtr-32" value="sys.argv" style="whiteSpace=wrap;html=1;fontSize=12;" parent="1" vertex="1">
          <mxGeometry x="2180" y="320" width="120" height="60" as="geometry" />
        </mxCell>
        <mxCell id="fjqLG9jufIr7hQlXoKtr-34" value="python -c &quot;command;command&quot; &amp;lt;==&amp;gt; echo -e &quot;command\ncommand&quot; | python" style="whiteSpace=wrap;html=1;fontSize=12;" parent="1" vertex="1">
          <mxGeometry x="2000" y="420" width="480" height="60" as="geometry" />
        </mxCell>
        <mxCell id="dHfb87SPBxzQ6KdG2XZ1-1" value="python -c &amp;lt;command&amp;gt;&lt;br&gt;python -m &amp;lt;module-name&amp;gt;&lt;br&gt;python -i &amp;lt;script&amp;gt;" style="whiteSpace=wrap;html=1;" parent="1" vertex="1">
          <mxGeometry x="2520" y="180" width="200" height="60" as="geometry" />
        </mxCell>
        <mxCell id="pvh-8OEyMAAPhfDKWapa-1" value="Типы данных" style="whiteSpace=wrap;html=1;" parent="1" vertex="1">
          <mxGeometry x="3662" y="80" width="120" height="60" as="geometry" />
        </mxCell>
        <mxCell id="pvh-8OEyMAAPhfDKWapa-2" value="Мутабельные" style="whiteSpace=wrap;html=1;" parent="1" vertex="1">
          <mxGeometry x="3560" y="200" width="120" height="60" as="geometry" />
        </mxCell>
        <mxCell id="pvh-8OEyMAAPhfDKWapa-3" value="Имутабельные" style="whiteSpace=wrap;html=1;" parent="1" vertex="1">
          <mxGeometry x="3760" y="200" width="120" height="60" as="geometry" />
        </mxCell>
        <mxCell id="pvh-8OEyMAAPhfDKWapa-29" style="edgeStyle=orthogonalEdgeStyle;rounded=0;orthogonalLoop=1;jettySize=auto;html=1;exitX=0.5;exitY=1;exitDx=0;exitDy=0;fontFamily=Courier New;" parent="1" source="pvh-8OEyMAAPhfDKWapa-4" target="pvh-8OEyMAAPhfDKWapa-11" edge="1">
          <mxGeometry relative="1" as="geometry" />
        </mxCell>
        <mxCell id="pvh-8OEyMAAPhfDKWapa-30" style="edgeStyle=orthogonalEdgeStyle;rounded=0;orthogonalLoop=1;jettySize=auto;html=1;exitX=0.5;exitY=1;exitDx=0;exitDy=0;fontFamily=Courier New;" parent="1" source="pvh-8OEyMAAPhfDKWapa-4" target="pvh-8OEyMAAPhfDKWapa-19" edge="1">
          <mxGeometry relative="1" as="geometry" />
        </mxCell>
        <mxCell id="pvh-8OEyMAAPhfDKWapa-32" style="edgeStyle=orthogonalEdgeStyle;rounded=0;orthogonalLoop=1;jettySize=auto;html=1;exitX=0.5;exitY=1;exitDx=0;exitDy=0;entryX=0.5;entryY=0;entryDx=0;entryDy=0;fontFamily=Courier New;" parent="1" source="pvh-8OEyMAAPhfDKWapa-4" target="pvh-8OEyMAAPhfDKWapa-5" edge="1">
          <mxGeometry relative="1" as="geometry" />
        </mxCell>
        <mxCell id="pvh-8OEyMAAPhfDKWapa-34" style="edgeStyle=orthogonalEdgeStyle;rounded=0;orthogonalLoop=1;jettySize=auto;html=1;exitX=0.5;exitY=1;exitDx=0;exitDy=0;fontFamily=Courier New;" parent="1" source="pvh-8OEyMAAPhfDKWapa-4" target="pvh-8OEyMAAPhfDKWapa-7" edge="1">
          <mxGeometry relative="1" as="geometry" />
        </mxCell>
        <mxCell id="pvh-8OEyMAAPhfDKWapa-35" style="edgeStyle=orthogonalEdgeStyle;rounded=0;orthogonalLoop=1;jettySize=auto;html=1;exitX=0.5;exitY=1;exitDx=0;exitDy=0;entryX=0.5;entryY=0;entryDx=0;entryDy=0;fontFamily=Courier New;" parent="1" source="pvh-8OEyMAAPhfDKWapa-4" target="pvh-8OEyMAAPhfDKWapa-9" edge="1">
          <mxGeometry relative="1" as="geometry" />
        </mxCell>
        <mxCell id="pvh-8OEyMAAPhfDKWapa-55" style="edgeStyle=orthogonalEdgeStyle;rounded=0;orthogonalLoop=1;jettySize=auto;html=1;exitX=0.5;exitY=1;exitDx=0;exitDy=0;entryX=0.5;entryY=0;entryDx=0;entryDy=0;fontFamily=Courier New;" parent="1" source="pvh-8OEyMAAPhfDKWapa-4" target="pvh-8OEyMAAPhfDKWapa-54" edge="1">
          <mxGeometry relative="1" as="geometry" />
        </mxCell>
        <mxCell id="pvh-8OEyMAAPhfDKWapa-63" style="edgeStyle=orthogonalEdgeStyle;rounded=0;orthogonalLoop=1;jettySize=auto;html=1;exitX=0.5;exitY=1;exitDx=0;exitDy=0;fontFamily=Courier New;" parent="1" source="pvh-8OEyMAAPhfDKWapa-4" target="pvh-8OEyMAAPhfDKWapa-60" edge="1">
          <mxGeometry relative="1" as="geometry" />
        </mxCell>
        <mxCell id="pvh-8OEyMAAPhfDKWapa-4" value="type" style="whiteSpace=wrap;html=1;fontFamily=Courier New;" parent="1" vertex="1">
          <mxGeometry x="4400" y="60" width="120" height="60" as="geometry" />
        </mxCell>
        <mxCell id="pvh-8OEyMAAPhfDKWapa-33" style="edgeStyle=orthogonalEdgeStyle;rounded=0;orthogonalLoop=1;jettySize=auto;html=1;exitX=0.5;exitY=1;exitDx=0;exitDy=0;entryX=0.5;entryY=0;entryDx=0;entryDy=0;fontFamily=Courier New;" parent="1" source="pvh-8OEyMAAPhfDKWapa-5" target="pvh-8OEyMAAPhfDKWapa-6" edge="1">
          <mxGeometry relative="1" as="geometry" />
        </mxCell>
        <mxCell id="pvh-8OEyMAAPhfDKWapa-5" value="NonType" style="whiteSpace=wrap;html=1;fontFamily=Courier New;" parent="1" vertex="1">
          <mxGeometry x="4160" y="160" width="120" height="60" as="geometry" />
        </mxCell>
        <mxCell id="pvh-8OEyMAAPhfDKWapa-6" value="None&lt;br&gt;False" style="whiteSpace=wrap;html=1;fontFamily=Courier New;" parent="1" vertex="1">
          <mxGeometry x="4160" y="260" width="120" height="60" as="geometry" />
        </mxCell>
        <mxCell id="pvh-8OEyMAAPhfDKWapa-36" style="edgeStyle=orthogonalEdgeStyle;rounded=0;orthogonalLoop=1;jettySize=auto;html=1;exitX=0.5;exitY=1;exitDx=0;exitDy=0;entryX=0.5;entryY=0;entryDx=0;entryDy=0;fontFamily=Courier New;" parent="1" source="pvh-8OEyMAAPhfDKWapa-7" target="pvh-8OEyMAAPhfDKWapa-8" edge="1">
          <mxGeometry relative="1" as="geometry" />
        </mxCell>
        <mxCell id="pvh-8OEyMAAPhfDKWapa-7" value="NotImplementedType" style="whiteSpace=wrap;html=1;fontFamily=Courier New;" parent="1" vertex="1">
          <mxGeometry x="4320" y="160" width="160" height="60" as="geometry" />
        </mxCell>
        <mxCell id="pvh-8OEyMAAPhfDKWapa-8" value="NotImplemented&lt;br&gt;True(deprecated)" style="whiteSpace=wrap;html=1;fontFamily=Courier New;" parent="1" vertex="1">
          <mxGeometry x="4320" y="260" width="160" height="60" as="geometry" />
        </mxCell>
        <mxCell id="pvh-8OEyMAAPhfDKWapa-37" style="edgeStyle=orthogonalEdgeStyle;rounded=0;orthogonalLoop=1;jettySize=auto;html=1;exitX=0.5;exitY=1;exitDx=0;exitDy=0;entryX=0.5;entryY=0;entryDx=0;entryDy=0;fontFamily=Courier New;" parent="1" source="pvh-8OEyMAAPhfDKWapa-9" target="pvh-8OEyMAAPhfDKWapa-10" edge="1">
          <mxGeometry relative="1" as="geometry" />
        </mxCell>
        <mxCell id="pvh-8OEyMAAPhfDKWapa-9" value="ellipsis" style="whiteSpace=wrap;html=1;fontFamily=Courier New;" parent="1" vertex="1">
          <mxGeometry x="4520" y="160" width="120" height="60" as="geometry" />
        </mxCell>
        <mxCell id="pvh-8OEyMAAPhfDKWapa-10" value="Ellipsis(...)&lt;br&gt;True" style="whiteSpace=wrap;html=1;fontFamily=Courier New;" parent="1" vertex="1">
          <mxGeometry x="4520" y="260" width="120" height="60" as="geometry" />
        </mxCell>
        <mxCell id="pvh-8OEyMAAPhfDKWapa-21" style="edgeStyle=orthogonalEdgeStyle;rounded=0;orthogonalLoop=1;jettySize=auto;html=1;exitX=0.5;exitY=1;exitDx=0;exitDy=0;entryX=0.5;entryY=0;entryDx=0;entryDy=0;fontFamily=Courier New;" parent="1" source="pvh-8OEyMAAPhfDKWapa-11" target="pvh-8OEyMAAPhfDKWapa-12" edge="1">
          <mxGeometry relative="1" as="geometry" />
        </mxCell>
        <mxCell id="pvh-8OEyMAAPhfDKWapa-24" style="edgeStyle=orthogonalEdgeStyle;rounded=0;orthogonalLoop=1;jettySize=auto;html=1;exitX=0.5;exitY=1;exitDx=0;exitDy=0;fontFamily=Courier New;" parent="1" source="pvh-8OEyMAAPhfDKWapa-11" target="pvh-8OEyMAAPhfDKWapa-14" edge="1">
          <mxGeometry relative="1" as="geometry" />
        </mxCell>
        <mxCell id="pvh-8OEyMAAPhfDKWapa-26" style="edgeStyle=orthogonalEdgeStyle;rounded=0;orthogonalLoop=1;jettySize=auto;html=1;exitX=0.5;exitY=1;exitDx=0;exitDy=0;entryX=0.5;entryY=0;entryDx=0;entryDy=0;fontFamily=Courier New;" parent="1" source="pvh-8OEyMAAPhfDKWapa-11" target="pvh-8OEyMAAPhfDKWapa-17" edge="1">
          <mxGeometry relative="1" as="geometry" />
        </mxCell>
        <mxCell id="pvh-8OEyMAAPhfDKWapa-11" value="numbers.Number&lt;br&gt;immutable" style="whiteSpace=wrap;html=1;fontFamily=Courier New;" parent="1" vertex="1">
          <mxGeometry x="4680" y="160" width="120" height="60" as="geometry" />
        </mxCell>
        <mxCell id="pvh-8OEyMAAPhfDKWapa-22" style="edgeStyle=orthogonalEdgeStyle;rounded=0;orthogonalLoop=1;jettySize=auto;html=1;exitX=0.5;exitY=1;exitDx=0;exitDy=0;entryX=0.5;entryY=0;entryDx=0;entryDy=0;fontFamily=Courier New;" parent="1" source="pvh-8OEyMAAPhfDKWapa-12" target="pvh-8OEyMAAPhfDKWapa-13" edge="1">
          <mxGeometry relative="1" as="geometry" />
        </mxCell>
        <mxCell id="pvh-8OEyMAAPhfDKWapa-23" style="edgeStyle=orthogonalEdgeStyle;rounded=0;orthogonalLoop=1;jettySize=auto;html=1;exitX=0.5;exitY=1;exitDx=0;exitDy=0;fontFamily=Courier New;" parent="1" source="pvh-8OEyMAAPhfDKWapa-12" target="pvh-8OEyMAAPhfDKWapa-15" edge="1">
          <mxGeometry relative="1" as="geometry" />
        </mxCell>
        <mxCell id="pvh-8OEyMAAPhfDKWapa-12" value="numbers.Integral" style="whiteSpace=wrap;html=1;fontFamily=Courier New;" parent="1" vertex="1">
          <mxGeometry x="4680" y="260" width="120" height="60" as="geometry" />
        </mxCell>
        <mxCell id="pvh-8OEyMAAPhfDKWapa-13" value="int" style="whiteSpace=wrap;html=1;fontFamily=Courier New;" parent="1" vertex="1">
          <mxGeometry x="4680" y="360" width="120" height="60" as="geometry" />
        </mxCell>
        <mxCell id="pvh-8OEyMAAPhfDKWapa-25" style="edgeStyle=orthogonalEdgeStyle;rounded=0;orthogonalLoop=1;jettySize=auto;html=1;exitX=0.5;exitY=1;exitDx=0;exitDy=0;entryX=0.5;entryY=0;entryDx=0;entryDy=0;fontFamily=Courier New;" parent="1" source="pvh-8OEyMAAPhfDKWapa-14" target="pvh-8OEyMAAPhfDKWapa-16" edge="1">
          <mxGeometry relative="1" as="geometry" />
        </mxCell>
        <mxCell id="pvh-8OEyMAAPhfDKWapa-14" value="numbers.Real" style="whiteSpace=wrap;html=1;fontFamily=Courier New;" parent="1" vertex="1">
          <mxGeometry x="5000" y="260" width="120" height="60" as="geometry" />
        </mxCell>
        <mxCell id="pvh-8OEyMAAPhfDKWapa-15" value="bool" style="whiteSpace=wrap;html=1;fontFamily=Courier New;" parent="1" vertex="1">
          <mxGeometry x="4840" y="360" width="120" height="60" as="geometry" />
        </mxCell>
        <mxCell id="pvh-8OEyMAAPhfDKWapa-16" value="float" style="whiteSpace=wrap;html=1;fontFamily=Courier New;" parent="1" vertex="1">
          <mxGeometry x="5000" y="360" width="120" height="60" as="geometry" />
        </mxCell>
        <mxCell id="pvh-8OEyMAAPhfDKWapa-27" style="edgeStyle=orthogonalEdgeStyle;rounded=0;orthogonalLoop=1;jettySize=auto;html=1;exitX=0.5;exitY=1;exitDx=0;exitDy=0;entryX=0.5;entryY=0;entryDx=0;entryDy=0;fontFamily=Courier New;" parent="1" source="pvh-8OEyMAAPhfDKWapa-17" target="pvh-8OEyMAAPhfDKWapa-18" edge="1">
          <mxGeometry relative="1" as="geometry" />
        </mxCell>
        <mxCell id="pvh-8OEyMAAPhfDKWapa-17" value="numbers.Complex" style="whiteSpace=wrap;html=1;fontFamily=Courier New;" parent="1" vertex="1">
          <mxGeometry x="5160" y="260" width="120" height="60" as="geometry" />
        </mxCell>
        <mxCell id="pvh-8OEyMAAPhfDKWapa-18" value="complex" style="whiteSpace=wrap;html=1;fontFamily=Courier New;" parent="1" vertex="1">
          <mxGeometry x="5160" y="360" width="120" height="60" as="geometry" />
        </mxCell>
        <mxCell id="pvh-8OEyMAAPhfDKWapa-31" style="edgeStyle=orthogonalEdgeStyle;rounded=0;orthogonalLoop=1;jettySize=auto;html=1;exitX=0.5;exitY=1;exitDx=0;exitDy=0;entryX=0.5;entryY=0;entryDx=0;entryDy=0;fontFamily=Courier New;" parent="1" source="pvh-8OEyMAAPhfDKWapa-19" target="pvh-8OEyMAAPhfDKWapa-20" edge="1">
          <mxGeometry relative="1" as="geometry" />
        </mxCell>
        <mxCell id="pvh-8OEyMAAPhfDKWapa-45" style="edgeStyle=orthogonalEdgeStyle;rounded=0;orthogonalLoop=1;jettySize=auto;html=1;exitX=0.5;exitY=1;exitDx=0;exitDy=0;entryX=0.5;entryY=0;entryDx=0;entryDy=0;fontFamily=Courier New;" parent="1" source="pvh-8OEyMAAPhfDKWapa-19" target="pvh-8OEyMAAPhfDKWapa-44" edge="1">
          <mxGeometry relative="1" as="geometry" />
        </mxCell>
        <mxCell id="pvh-8OEyMAAPhfDKWapa-19" value="Sequences" style="whiteSpace=wrap;html=1;fontFamily=Courier New;" parent="1" vertex="1">
          <mxGeometry x="5320" y="160" width="120" height="60" as="geometry" />
        </mxCell>
        <mxCell id="pvh-8OEyMAAPhfDKWapa-39" style="edgeStyle=orthogonalEdgeStyle;rounded=0;orthogonalLoop=1;jettySize=auto;html=1;exitX=0.5;exitY=1;exitDx=0;exitDy=0;entryX=0.5;entryY=0;entryDx=0;entryDy=0;fontFamily=Courier New;" parent="1" source="pvh-8OEyMAAPhfDKWapa-20" target="pvh-8OEyMAAPhfDKWapa-38" edge="1">
          <mxGeometry relative="1" as="geometry" />
        </mxCell>
        <mxCell id="pvh-8OEyMAAPhfDKWapa-41" style="edgeStyle=orthogonalEdgeStyle;rounded=0;orthogonalLoop=1;jettySize=auto;html=1;exitX=0.5;exitY=1;exitDx=0;exitDy=0;fontFamily=Courier New;" parent="1" source="pvh-8OEyMAAPhfDKWapa-20" target="pvh-8OEyMAAPhfDKWapa-40" edge="1">
          <mxGeometry relative="1" as="geometry" />
        </mxCell>
        <mxCell id="pvh-8OEyMAAPhfDKWapa-43" style="edgeStyle=orthogonalEdgeStyle;rounded=0;orthogonalLoop=1;jettySize=auto;html=1;exitX=0.5;exitY=1;exitDx=0;exitDy=0;entryX=0.5;entryY=0;entryDx=0;entryDy=0;fontFamily=Courier New;" parent="1" source="pvh-8OEyMAAPhfDKWapa-20" target="pvh-8OEyMAAPhfDKWapa-42" edge="1">
          <mxGeometry relative="1" as="geometry" />
        </mxCell>
        <mxCell id="pvh-8OEyMAAPhfDKWapa-20" value="Immutable Sequences" style="whiteSpace=wrap;html=1;fontFamily=Courier New;" parent="1" vertex="1">
          <mxGeometry x="5320" y="260" width="120" height="60" as="geometry" />
        </mxCell>
        <mxCell id="pvh-8OEyMAAPhfDKWapa-38" value="string" style="whiteSpace=wrap;html=1;fontFamily=Courier New;" parent="1" vertex="1">
          <mxGeometry x="5320" y="360" width="120" height="60" as="geometry" />
        </mxCell>
        <mxCell id="pvh-8OEyMAAPhfDKWapa-40" value="tuple" style="whiteSpace=wrap;html=1;fontFamily=Courier New;" parent="1" vertex="1">
          <mxGeometry x="5480" y="360" width="120" height="60" as="geometry" />
        </mxCell>
        <mxCell id="pvh-8OEyMAAPhfDKWapa-42" value="bytes" style="whiteSpace=wrap;html=1;fontFamily=Courier New;" parent="1" vertex="1">
          <mxGeometry x="5640" y="360" width="120" height="60" as="geometry" />
        </mxCell>
        <mxCell id="pvh-8OEyMAAPhfDKWapa-47" style="edgeStyle=orthogonalEdgeStyle;rounded=0;orthogonalLoop=1;jettySize=auto;html=1;exitX=0.5;exitY=1;exitDx=0;exitDy=0;fontFamily=Courier New;" parent="1" source="pvh-8OEyMAAPhfDKWapa-44" target="pvh-8OEyMAAPhfDKWapa-46" edge="1">
          <mxGeometry relative="1" as="geometry" />
        </mxCell>
        <mxCell id="pvh-8OEyMAAPhfDKWapa-49" style="edgeStyle=orthogonalEdgeStyle;rounded=0;orthogonalLoop=1;jettySize=auto;html=1;exitX=0.5;exitY=1;exitDx=0;exitDy=0;entryX=0.5;entryY=0;entryDx=0;entryDy=0;fontFamily=Courier New;" parent="1" source="pvh-8OEyMAAPhfDKWapa-44" target="pvh-8OEyMAAPhfDKWapa-48" edge="1">
          <mxGeometry relative="1" as="geometry" />
        </mxCell>
        <mxCell id="pvh-8OEyMAAPhfDKWapa-51" style="edgeStyle=orthogonalEdgeStyle;rounded=0;orthogonalLoop=1;jettySize=auto;html=1;exitX=0.5;exitY=1;exitDx=0;exitDy=0;fontFamily=Courier New;" parent="1" source="pvh-8OEyMAAPhfDKWapa-44" target="pvh-8OEyMAAPhfDKWapa-50" edge="1">
          <mxGeometry relative="1" as="geometry" />
        </mxCell>
        <mxCell id="pvh-8OEyMAAPhfDKWapa-53" style="edgeStyle=orthogonalEdgeStyle;rounded=0;orthogonalLoop=1;jettySize=auto;html=1;exitX=0.5;exitY=1;exitDx=0;exitDy=0;entryX=0.5;entryY=0;entryDx=0;entryDy=0;fontFamily=Courier New;" parent="1" source="pvh-8OEyMAAPhfDKWapa-44" target="pvh-8OEyMAAPhfDKWapa-52" edge="1">
          <mxGeometry relative="1" as="geometry" />
        </mxCell>
        <mxCell id="pvh-8OEyMAAPhfDKWapa-44" value="Mutable Sequences" style="whiteSpace=wrap;html=1;fontFamily=Courier New;" parent="1" vertex="1">
          <mxGeometry x="5800" y="260" width="120" height="60" as="geometry" />
        </mxCell>
        <mxCell id="pvh-8OEyMAAPhfDKWapa-46" value="list" style="whiteSpace=wrap;html=1;fontFamily=Courier New;" parent="1" vertex="1">
          <mxGeometry x="5800" y="360" width="120" height="60" as="geometry" />
        </mxCell>
        <mxCell id="pvh-8OEyMAAPhfDKWapa-48" value="bytearray" style="whiteSpace=wrap;html=1;fontFamily=Courier New;" parent="1" vertex="1">
          <mxGeometry x="5960" y="360" width="120" height="60" as="geometry" />
        </mxCell>
        <mxCell id="pvh-8OEyMAAPhfDKWapa-50" value="array.array" style="whiteSpace=wrap;html=1;fontFamily=Courier New;" parent="1" vertex="1">
          <mxGeometry x="6120" y="360" width="120" height="60" as="geometry" />
        </mxCell>
        <mxCell id="pvh-8OEyMAAPhfDKWapa-52" value="collections" style="whiteSpace=wrap;html=1;fontFamily=Courier New;" parent="1" vertex="1">
          <mxGeometry x="6280" y="360" width="120" height="60" as="geometry" />
        </mxCell>
        <mxCell id="pvh-8OEyMAAPhfDKWapa-58" style="edgeStyle=orthogonalEdgeStyle;rounded=0;orthogonalLoop=1;jettySize=auto;html=1;exitX=0.5;exitY=1;exitDx=0;exitDy=0;entryX=0.5;entryY=0;entryDx=0;entryDy=0;fontFamily=Courier New;" parent="1" source="pvh-8OEyMAAPhfDKWapa-54" target="pvh-8OEyMAAPhfDKWapa-56" edge="1">
          <mxGeometry relative="1" as="geometry" />
        </mxCell>
        <mxCell id="pvh-8OEyMAAPhfDKWapa-59" style="edgeStyle=orthogonalEdgeStyle;rounded=0;orthogonalLoop=1;jettySize=auto;html=1;exitX=0.5;exitY=1;exitDx=0;exitDy=0;fontFamily=Courier New;" parent="1" source="pvh-8OEyMAAPhfDKWapa-54" target="pvh-8OEyMAAPhfDKWapa-57" edge="1">
          <mxGeometry relative="1" as="geometry" />
        </mxCell>
        <mxCell id="pvh-8OEyMAAPhfDKWapa-54" value="set" style="whiteSpace=wrap;html=1;fontFamily=Courier New;" parent="1" vertex="1">
          <mxGeometry x="6440" y="160" width="120" height="60" as="geometry" />
        </mxCell>
        <mxCell id="pvh-8OEyMAAPhfDKWapa-56" value="set" style="whiteSpace=wrap;html=1;fontFamily=Courier New;" parent="1" vertex="1">
          <mxGeometry x="6440" y="260" width="120" height="60" as="geometry" />
        </mxCell>
        <mxCell id="pvh-8OEyMAAPhfDKWapa-57" value="frozenset" style="whiteSpace=wrap;html=1;fontFamily=Courier New;" parent="1" vertex="1">
          <mxGeometry x="6600" y="260" width="120" height="60" as="geometry" />
        </mxCell>
        <mxCell id="pvh-8OEyMAAPhfDKWapa-62" style="edgeStyle=orthogonalEdgeStyle;rounded=0;orthogonalLoop=1;jettySize=auto;html=1;exitX=0.5;exitY=1;exitDx=0;exitDy=0;entryX=0.5;entryY=0;entryDx=0;entryDy=0;fontFamily=Courier New;" parent="1" source="pvh-8OEyMAAPhfDKWapa-60" target="pvh-8OEyMAAPhfDKWapa-61" edge="1">
          <mxGeometry relative="1" as="geometry" />
        </mxCell>
        <mxCell id="pvh-8OEyMAAPhfDKWapa-60" value="mappings" style="whiteSpace=wrap;html=1;fontFamily=Courier New;" parent="1" vertex="1">
          <mxGeometry x="6760" y="160" width="120" height="60" as="geometry" />
        </mxCell>
        <mxCell id="pvh-8OEyMAAPhfDKWapa-61" value="dict" style="whiteSpace=wrap;html=1;fontFamily=Courier New;" parent="1" vertex="1">
          <mxGeometry x="6760" y="260" width="120" height="60" as="geometry" />
        </mxCell>
        <mxCell id="pvh-8OEyMAAPhfDKWapa-64" value="callable" style="whiteSpace=wrap;html=1;fontFamily=Courier New;" parent="1" vertex="1">
          <mxGeometry x="6920" y="160" width="120" height="60" as="geometry" />
        </mxCell>
        <mxCell id="pvh-8OEyMAAPhfDKWapa-66" value="module" style="whiteSpace=wrap;html=1;fontFamily=Courier New;" parent="1" vertex="1">
          <mxGeometry x="7080" y="160" width="120" height="60" as="geometry" />
        </mxCell>
        <mxCell id="pvh-8OEyMAAPhfDKWapa-67" value="custom classes" style="whiteSpace=wrap;html=1;fontFamily=Courier New;" parent="1" vertex="1">
          <mxGeometry x="7240" y="160" width="120" height="60" as="geometry" />
        </mxCell>
        <mxCell id="AAdFp3yC4sRfmH3a8Seg-1" style="edgeStyle=orthogonalEdgeStyle;rounded=0;orthogonalLoop=1;jettySize=auto;html=1;exitX=0.5;exitY=1;exitDx=0;exitDy=0;entryX=0.5;entryY=0;entryDx=0;entryDy=0;fontFamily=Courier New;" edge="1" parent="1" source="AAdFp3yC4sRfmH3a8Seg-3" target="AAdFp3yC4sRfmH3a8Seg-4">
          <mxGeometry relative="1" as="geometry" />
        </mxCell>
        <mxCell id="AAdFp3yC4sRfmH3a8Seg-2" style="edgeStyle=orthogonalEdgeStyle;rounded=0;orthogonalLoop=1;jettySize=auto;html=1;exitX=0.5;exitY=1;exitDx=0;exitDy=0;fontFamily=Courier New;" edge="1" parent="1" source="AAdFp3yC4sRfmH3a8Seg-3" target="AAdFp3yC4sRfmH3a8Seg-5">
          <mxGeometry relative="1" as="geometry" />
        </mxCell>
        <mxCell id="AAdFp3yC4sRfmH3a8Seg-3" value="I/O from terminal" style="rounded=0;whiteSpace=wrap;html=1;fontFamily=Courier New;" vertex="1" parent="1">
          <mxGeometry x="180" y="180" width="120" height="60" as="geometry" />
        </mxCell>
        <mxCell id="AAdFp3yC4sRfmH3a8Seg-4" value="input()" style="whiteSpace=wrap;html=1;fontFamily=Courier New;" vertex="1" parent="1">
          <mxGeometry x="110" y="320" width="120" height="60" as="geometry" />
        </mxCell>
        <mxCell id="AAdFp3yC4sRfmH3a8Seg-5" value="print()" style="whiteSpace=wrap;html=1;fontFamily=Courier New;" vertex="1" parent="1">
          <mxGeometry x="250" y="320" width="120" height="60" as="geometry" />
        </mxCell>
        <mxCell id="AAdFp3yC4sRfmH3a8Seg-6" style="edgeStyle=orthogonalEdgeStyle;rounded=0;orthogonalLoop=1;jettySize=auto;html=1;exitX=0.5;exitY=1;exitDx=0;exitDy=0;entryX=0.5;entryY=0;entryDx=0;entryDy=0;fontFamily=Courier New;" edge="1" parent="1" source="AAdFp3yC4sRfmH3a8Seg-7" target="AAdFp3yC4sRfmH3a8Seg-8">
          <mxGeometry relative="1" as="geometry" />
        </mxCell>
        <mxCell id="AAdFp3yC4sRfmH3a8Seg-7" value="The &lt;br&gt;Zen of Python" style="whiteSpace=wrap;html=1;fontFamily=Courier New;" vertex="1" parent="1">
          <mxGeometry x="440" y="180" width="120" height="60" as="geometry" />
        </mxCell>
        <mxCell id="AAdFp3yC4sRfmH3a8Seg-8" value="import this" style="whiteSpace=wrap;html=1;fontFamily=Courier New;" vertex="1" parent="1">
          <mxGeometry x="440" y="320" width="120" height="60" as="geometry" />
        </mxCell>
        <mxCell id="AAdFp3yC4sRfmH3a8Seg-9" style="edgeStyle=orthogonalEdgeStyle;rounded=0;orthogonalLoop=1;jettySize=auto;html=1;exitX=0.5;exitY=1;exitDx=0;exitDy=0;fontFamily=Courier New;" edge="1" parent="1" source="AAdFp3yC4sRfmH3a8Seg-10" target="AAdFp3yC4sRfmH3a8Seg-11">
          <mxGeometry relative="1" as="geometry" />
        </mxCell>
        <mxCell id="AAdFp3yC4sRfmH3a8Seg-10" value="pip usage" style="whiteSpace=wrap;html=1;fontFamily=Courier New;" vertex="1" parent="1">
          <mxGeometry x="640" y="180" width="120" height="60" as="geometry" />
        </mxCell>
        <mxCell id="AAdFp3yC4sRfmH3a8Seg-11" value="&amp;gt;_ pip" style="whiteSpace=wrap;html=1;fontFamily=Courier New;" vertex="1" parent="1">
          <mxGeometry x="640" y="320" width="120" height="60" as="geometry" />
        </mxCell>
        <mxCell id="AAdFp3yC4sRfmH3a8Seg-12" style="edgeStyle=orthogonalEdgeStyle;rounded=0;orthogonalLoop=1;jettySize=auto;html=1;exitX=0.5;exitY=1;exitDx=0;exitDy=0;entryX=0.5;entryY=0;entryDx=0;entryDy=0;fontFamily=Courier New;" edge="1" parent="1" source="AAdFp3yC4sRfmH3a8Seg-13" target="AAdFp3yC4sRfmH3a8Seg-15">
          <mxGeometry relative="1" as="geometry" />
        </mxCell>
        <mxCell id="AAdFp3yC4sRfmH3a8Seg-13" value="Кодировка файла" style="whiteSpace=wrap;html=1;fontFamily=Courier New;" vertex="1" parent="1">
          <mxGeometry x="860" y="180" width="120" height="60" as="geometry" />
        </mxCell>
        <mxCell id="AAdFp3yC4sRfmH3a8Seg-14" style="edgeStyle=orthogonalEdgeStyle;rounded=0;orthogonalLoop=1;jettySize=auto;html=1;exitX=0.5;exitY=1;exitDx=0;exitDy=0;entryX=0;entryY=0.5;entryDx=0;entryDy=0;fontFamily=Courier New;" edge="1" parent="1" source="AAdFp3yC4sRfmH3a8Seg-15" target="AAdFp3yC4sRfmH3a8Seg-20">
          <mxGeometry relative="1" as="geometry" />
        </mxCell>
        <mxCell id="AAdFp3yC4sRfmH3a8Seg-15" value="# -*- coding: encoding -*-&lt;br&gt;(module codecs)" style="whiteSpace=wrap;html=1;fontFamily=Courier New;" vertex="1" parent="1">
          <mxGeometry x="840" y="320" width="160" height="60" as="geometry" />
        </mxCell>
        <mxCell id="AAdFp3yC4sRfmH3a8Seg-16" style="edgeStyle=orthogonalEdgeStyle;rounded=0;orthogonalLoop=1;jettySize=auto;html=1;exitX=0.5;exitY=1;exitDx=0;exitDy=0;entryX=0.5;entryY=0;entryDx=0;entryDy=0;fontFamily=Courier New;" edge="1" parent="1" source="AAdFp3yC4sRfmH3a8Seg-17" target="AAdFp3yC4sRfmH3a8Seg-19">
          <mxGeometry relative="1" as="geometry" />
        </mxCell>
        <mxCell id="AAdFp3yC4sRfmH3a8Seg-17" value="shebang" style="whiteSpace=wrap;html=1;fontFamily=Courier New;" vertex="1" parent="1">
          <mxGeometry x="1060" y="180" width="120" height="60" as="geometry" />
        </mxCell>
        <mxCell id="AAdFp3yC4sRfmH3a8Seg-18" style="edgeStyle=orthogonalEdgeStyle;rounded=0;orthogonalLoop=1;jettySize=auto;html=1;exitX=0.5;exitY=1;exitDx=0;exitDy=0;entryX=1;entryY=0.5;entryDx=0;entryDy=0;fontFamily=Courier New;" edge="1" parent="1" source="AAdFp3yC4sRfmH3a8Seg-19" target="AAdFp3yC4sRfmH3a8Seg-20">
          <mxGeometry relative="1" as="geometry" />
        </mxCell>
        <mxCell id="AAdFp3yC4sRfmH3a8Seg-19" value="#!/usr/bin/env python3" style="whiteSpace=wrap;html=1;fontFamily=Courier New;" vertex="1" parent="1">
          <mxGeometry x="1040" y="320" width="160" height="60" as="geometry" />
        </mxCell>
        <mxCell id="AAdFp3yC4sRfmH3a8Seg-20" value="&lt;div style=&quot;text-align: left&quot;&gt;#!/usr/bin/env python3&lt;/div&gt;&lt;div style=&quot;text-align: left&quot;&gt;# -*- coding: encoding -*-&lt;/div&gt;" style="whiteSpace=wrap;html=1;fontFamily=Courier New;" vertex="1" parent="1">
          <mxGeometry x="940" y="440" width="160" height="60" as="geometry" />
        </mxCell>
        <mxCell id="AAdFp3yC4sRfmH3a8Seg-21" style="edgeStyle=orthogonalEdgeStyle;rounded=0;orthogonalLoop=1;jettySize=auto;html=1;exitX=0.5;exitY=1;exitDx=0;exitDy=0;entryX=0.5;entryY=0;entryDx=0;entryDy=0;fontFamily=Courier New;" edge="1" parent="1" source="AAdFp3yC4sRfmH3a8Seg-22" target="AAdFp3yC4sRfmH3a8Seg-23">
          <mxGeometry relative="1" as="geometry" />
        </mxCell>
        <mxCell id="AAdFp3yC4sRfmH3a8Seg-22" value="exec(object, globals, locals)" style="whiteSpace=wrap;html=1;fontFamily=Courier New;" vertex="1" parent="1">
          <mxGeometry x="1241" y="180" width="199.5" height="60" as="geometry" />
        </mxCell>
        <mxCell id="AAdFp3yC4sRfmH3a8Seg-23" value="exec object in globals, locals" style="whiteSpace=wrap;html=1;fontFamily=Courier New;" vertex="1" parent="1">
          <mxGeometry x="1240.5" y="320" width="199" height="60" as="geometry" />
        </mxCell>
        <mxCell id="AAdFp3yC4sRfmH3a8Seg-24" value="Игнорируемые исключения" style="whiteSpace=wrap;html=1;fontFamily=Courier New;" vertex="1" parent="1">
          <mxGeometry x="120" y="580" width="200" height="60" as="geometry" />
        </mxCell>
        <mxCell id="AAdFp3yC4sRfmH3a8Seg-25" value="&lt;font style=&quot;font-size: 20px&quot;&gt;!&lt;/font&gt;" style="text;html=1;strokeColor=none;fillColor=none;align=center;verticalAlign=middle;whiteSpace=wrap;rounded=0;fontFamily=Courier New;" vertex="1" parent="1">
          <mxGeometry x="30" y="595" width="60" height="30" as="geometry" />
        </mxCell>
        <mxCell id="AAdFp3yC4sRfmH3a8Seg-26" value="sys.maxint(maxsize)" style="whiteSpace=wrap;html=1;fontSize=12;fontStyle=0;fontFamily=Courier New;" vertex="1" parent="1">
          <mxGeometry x="1480" y="180" width="120" height="60" as="geometry" />
        </mxCell>
        <mxCell id="AAdFp3yC4sRfmH3a8Seg-27" value="Идентичность встроенных типов (is и id)" style="whiteSpace=wrap;html=1;fontSize=12;fontFamily=Courier New;" vertex="1" parent="1">
          <mxGeometry x="120" y="680" width="200" height="60" as="geometry" />
        </mxCell>
        <mxCell id="AAdFp3yC4sRfmH3a8Seg-28" value="docker &amp;nbsp;run - it python:3.x&lt;br&gt;x means latest" style="whiteSpace=wrap;html=1;fontSize=12;fontFamily=Courier New;" vertex="1" parent="1">
          <mxGeometry x="1640" y="180" width="160" height="60" as="geometry" />
        </mxCell>
        <mxCell id="AAdFp3yC4sRfmH3a8Seg-29" value="eggs &amp;amp; wheels" style="whiteSpace=wrap;html=1;fontSize=12;fontFamily=Courier New;" vertex="1" parent="1">
          <mxGeometry x="1840" y="180" width="120" height="60" as="geometry" />
        </mxCell>
        <mxCell id="AAdFp3yC4sRfmH3a8Seg-30" style="edgeStyle=orthogonalEdgeStyle;rounded=0;orthogonalLoop=1;jettySize=auto;html=1;exitX=0.5;exitY=1;exitDx=0;exitDy=0;entryX=0.5;entryY=0;entryDx=0;entryDy=0;fontSize=12;fontFamily=Courier New;" edge="1" parent="1" source="AAdFp3yC4sRfmH3a8Seg-31" target="AAdFp3yC4sRfmH3a8Seg-33">
          <mxGeometry relative="1" as="geometry" />
        </mxCell>
        <mxCell id="AAdFp3yC4sRfmH3a8Seg-31" value="&amp;gt;_&amp;nbsp;python [-bBdEhiIOqsSuvVWx?] [-c command | -m module-name | script | - ] [args]" style="whiteSpace=wrap;html=1;fontSize=12;fontFamily=Courier New;" vertex="1" parent="1">
          <mxGeometry x="2000" y="180" width="480" height="60" as="geometry" />
        </mxCell>
        <mxCell id="AAdFp3yC4sRfmH3a8Seg-32" style="edgeStyle=orthogonalEdgeStyle;rounded=0;orthogonalLoop=1;jettySize=auto;html=1;exitX=0.5;exitY=1;exitDx=0;exitDy=0;entryX=0.5;entryY=0;entryDx=0;entryDy=0;fontSize=12;fontFamily=Courier New;" edge="1" parent="1" source="AAdFp3yC4sRfmH3a8Seg-33" target="AAdFp3yC4sRfmH3a8Seg-34">
          <mxGeometry relative="1" as="geometry" />
        </mxCell>
        <mxCell id="AAdFp3yC4sRfmH3a8Seg-33" value="sys.argv" style="whiteSpace=wrap;html=1;fontSize=12;fontFamily=Courier New;" vertex="1" parent="1">
          <mxGeometry x="2180" y="320" width="120" height="60" as="geometry" />
        </mxCell>
        <mxCell id="AAdFp3yC4sRfmH3a8Seg-34" value="python -c &quot;command;command&quot; &amp;lt;==&amp;gt; echo -e &quot;command\ncommand&quot; | python" style="whiteSpace=wrap;html=1;fontSize=12;fontFamily=Courier New;" vertex="1" parent="1">
          <mxGeometry x="2000" y="420" width="480" height="60" as="geometry" />
        </mxCell>
        <mxCell id="AAdFp3yC4sRfmH3a8Seg-35" value="python -c &amp;lt;command&amp;gt;&lt;br&gt;python -m &amp;lt;module-name&amp;gt;&lt;br&gt;python -i &amp;lt;script&amp;gt;" style="whiteSpace=wrap;html=1;fontFamily=Courier New;" vertex="1" parent="1">
          <mxGeometry x="2520" y="180" width="200" height="60" as="geometry" />
        </mxCell>
        <mxCell id="AAdFp3yC4sRfmH3a8Seg-36" value="Типы данных" style="whiteSpace=wrap;html=1;fontFamily=Courier New;" vertex="1" parent="1">
          <mxGeometry x="3662" y="80" width="120" height="60" as="geometry" />
        </mxCell>
        <mxCell id="AAdFp3yC4sRfmH3a8Seg-37" value="Мутабельные" style="whiteSpace=wrap;html=1;fontFamily=Courier New;" vertex="1" parent="1">
          <mxGeometry x="3560" y="200" width="120" height="60" as="geometry" />
        </mxCell>
        <mxCell id="AAdFp3yC4sRfmH3a8Seg-38" value="Имутабельные" style="whiteSpace=wrap;html=1;fontFamily=Courier New;" vertex="1" parent="1">
          <mxGeometry x="3760" y="200" width="120" height="60" as="geometry" />
        </mxCell>
        <mxCell id="AAdFp3yC4sRfmH3a8Seg-39" style="edgeStyle=orthogonalEdgeStyle;rounded=0;orthogonalLoop=1;jettySize=auto;html=1;exitX=0.5;exitY=1;exitDx=0;exitDy=0;fontFamily=Courier New;" edge="1" parent="1" source="AAdFp3yC4sRfmH3a8Seg-52" target="AAdFp3yC4sRfmH3a8Seg-65">
          <mxGeometry relative="1" as="geometry" />
        </mxCell>
        <mxCell id="AAdFp3yC4sRfmH3a8Seg-40" style="edgeStyle=orthogonalEdgeStyle;rounded=0;orthogonalLoop=1;jettySize=auto;html=1;exitX=0.5;exitY=1;exitDx=0;exitDy=0;fontFamily=Courier New;" edge="1" parent="1" source="AAdFp3yC4sRfmH3a8Seg-52" target="AAdFp3yC4sRfmH3a8Seg-79">
          <mxGeometry relative="1" as="geometry" />
        </mxCell>
        <mxCell id="AAdFp3yC4sRfmH3a8Seg-41" style="edgeStyle=orthogonalEdgeStyle;rounded=0;orthogonalLoop=1;jettySize=auto;html=1;exitX=0.5;exitY=1;exitDx=0;exitDy=0;entryX=0.5;entryY=0;entryDx=0;entryDy=0;fontFamily=Courier New;" edge="1" parent="1" source="AAdFp3yC4sRfmH3a8Seg-52" target="AAdFp3yC4sRfmH3a8Seg-54">
          <mxGeometry relative="1" as="geometry" />
        </mxCell>
        <mxCell id="AAdFp3yC4sRfmH3a8Seg-42" style="edgeStyle=orthogonalEdgeStyle;rounded=0;orthogonalLoop=1;jettySize=auto;html=1;exitX=0.5;exitY=1;exitDx=0;exitDy=0;fontFamily=Courier New;" edge="1" parent="1" source="AAdFp3yC4sRfmH3a8Seg-52" target="AAdFp3yC4sRfmH3a8Seg-57">
          <mxGeometry relative="1" as="geometry" />
        </mxCell>
        <mxCell id="AAdFp3yC4sRfmH3a8Seg-43" style="edgeStyle=orthogonalEdgeStyle;rounded=0;orthogonalLoop=1;jettySize=auto;html=1;exitX=0.5;exitY=1;exitDx=0;exitDy=0;entryX=0.5;entryY=0;entryDx=0;entryDy=0;fontFamily=Courier New;" edge="1" parent="1" source="AAdFp3yC4sRfmH3a8Seg-52" target="AAdFp3yC4sRfmH3a8Seg-60">
          <mxGeometry relative="1" as="geometry" />
        </mxCell>
        <mxCell id="AAdFp3yC4sRfmH3a8Seg-44" style="edgeStyle=orthogonalEdgeStyle;rounded=0;orthogonalLoop=1;jettySize=auto;html=1;exitX=0.5;exitY=1;exitDx=0;exitDy=0;entryX=0.5;entryY=0;entryDx=0;entryDy=0;fontFamily=Courier New;" edge="1" parent="1" source="AAdFp3yC4sRfmH3a8Seg-52" target="AAdFp3yC4sRfmH3a8Seg-98">
          <mxGeometry relative="1" as="geometry" />
        </mxCell>
        <mxCell id="AAdFp3yC4sRfmH3a8Seg-45" style="edgeStyle=orthogonalEdgeStyle;rounded=0;orthogonalLoop=1;jettySize=auto;html=1;exitX=0.5;exitY=1;exitDx=0;exitDy=0;fontFamily=Courier New;" edge="1" parent="1" source="AAdFp3yC4sRfmH3a8Seg-52" target="AAdFp3yC4sRfmH3a8Seg-102">
          <mxGeometry relative="1" as="geometry" />
        </mxCell>
        <mxCell id="AAdFp3yC4sRfmH3a8Seg-46" style="edgeStyle=orthogonalEdgeStyle;rounded=0;orthogonalLoop=1;jettySize=auto;html=1;exitX=0.5;exitY=1;exitDx=0;exitDy=0;entryX=0.5;entryY=0;entryDx=0;entryDy=0;fontFamily=Courier New;" edge="1" parent="1" source="AAdFp3yC4sRfmH3a8Seg-52" target="AAdFp3yC4sRfmH3a8Seg-104">
          <mxGeometry relative="1" as="geometry" />
        </mxCell>
        <mxCell id="AAdFp3yC4sRfmH3a8Seg-47" style="edgeStyle=orthogonalEdgeStyle;rounded=0;orthogonalLoop=1;jettySize=auto;html=1;exitX=0.5;exitY=1;exitDx=0;exitDy=0;entryX=0.5;entryY=0;entryDx=0;entryDy=0;fontFamily=Courier New;" edge="1" parent="1" source="AAdFp3yC4sRfmH3a8Seg-52" target="AAdFp3yC4sRfmH3a8Seg-105">
          <mxGeometry relative="1" as="geometry" />
        </mxCell>
        <mxCell id="AAdFp3yC4sRfmH3a8Seg-48" style="edgeStyle=orthogonalEdgeStyle;rounded=0;orthogonalLoop=1;jettySize=auto;html=1;exitX=0.5;exitY=1;exitDx=0;exitDy=0;entryX=0.5;entryY=0;entryDx=0;entryDy=0;fontFamily=Courier New;" edge="1" parent="1" source="AAdFp3yC4sRfmH3a8Seg-52" target="AAdFp3yC4sRfmH3a8Seg-106">
          <mxGeometry relative="1" as="geometry" />
        </mxCell>
        <mxCell id="AAdFp3yC4sRfmH3a8Seg-49" style="edgeStyle=orthogonalEdgeStyle;rounded=0;orthogonalLoop=1;jettySize=auto;html=1;exitX=0.5;exitY=1;exitDx=0;exitDy=0;entryX=0.5;entryY=0;entryDx=0;entryDy=0;fontFamily=Courier New;" edge="1" parent="1" source="AAdFp3yC4sRfmH3a8Seg-52" target="AAdFp3yC4sRfmH3a8Seg-107">
          <mxGeometry relative="1" as="geometry" />
        </mxCell>
        <mxCell id="AAdFp3yC4sRfmH3a8Seg-50" style="edgeStyle=orthogonalEdgeStyle;rounded=0;orthogonalLoop=1;jettySize=auto;html=1;exitX=0.5;exitY=1;exitDx=0;exitDy=0;entryX=0.5;entryY=0;entryDx=0;entryDy=0;fontFamily=Courier New;" edge="1" parent="1" source="AAdFp3yC4sRfmH3a8Seg-52" target="AAdFp3yC4sRfmH3a8Seg-108">
          <mxGeometry relative="1" as="geometry" />
        </mxCell>
        <mxCell id="AAdFp3yC4sRfmH3a8Seg-51" style="edgeStyle=orthogonalEdgeStyle;rounded=0;orthogonalLoop=1;jettySize=auto;html=1;exitX=0.5;exitY=1;exitDx=0;exitDy=0;entryX=0.5;entryY=0;entryDx=0;entryDy=0;fontFamily=Courier New;" edge="1" parent="1" source="AAdFp3yC4sRfmH3a8Seg-52" target="AAdFp3yC4sRfmH3a8Seg-115">
          <mxGeometry relative="1" as="geometry" />
        </mxCell>
        <mxCell id="AAdFp3yC4sRfmH3a8Seg-52" value="type" style="whiteSpace=wrap;html=1;fontFamily=Courier New;" vertex="1" parent="1">
          <mxGeometry x="4400" y="60" width="120" height="60" as="geometry" />
        </mxCell>
        <mxCell id="AAdFp3yC4sRfmH3a8Seg-53" style="edgeStyle=orthogonalEdgeStyle;rounded=0;orthogonalLoop=1;jettySize=auto;html=1;exitX=0.5;exitY=1;exitDx=0;exitDy=0;entryX=0.5;entryY=0;entryDx=0;entryDy=0;fontFamily=Courier New;" edge="1" parent="1" source="AAdFp3yC4sRfmH3a8Seg-54" target="AAdFp3yC4sRfmH3a8Seg-55">
          <mxGeometry relative="1" as="geometry" />
        </mxCell>
        <mxCell id="AAdFp3yC4sRfmH3a8Seg-54" value="NonType" style="whiteSpace=wrap;html=1;fontFamily=Courier New;" vertex="1" parent="1">
          <mxGeometry x="4160" y="160" width="120" height="60" as="geometry" />
        </mxCell>
        <mxCell id="AAdFp3yC4sRfmH3a8Seg-55" value="None&lt;br&gt;False" style="whiteSpace=wrap;html=1;fontFamily=Courier New;" vertex="1" parent="1">
          <mxGeometry x="4160" y="260" width="120" height="60" as="geometry" />
        </mxCell>
        <mxCell id="AAdFp3yC4sRfmH3a8Seg-56" style="edgeStyle=orthogonalEdgeStyle;rounded=0;orthogonalLoop=1;jettySize=auto;html=1;exitX=0.5;exitY=1;exitDx=0;exitDy=0;entryX=0.5;entryY=0;entryDx=0;entryDy=0;fontFamily=Courier New;" edge="1" parent="1" source="AAdFp3yC4sRfmH3a8Seg-57" target="AAdFp3yC4sRfmH3a8Seg-58">
          <mxGeometry relative="1" as="geometry" />
        </mxCell>
        <mxCell id="AAdFp3yC4sRfmH3a8Seg-57" value="NotImplementedType" style="whiteSpace=wrap;html=1;fontFamily=Courier New;" vertex="1" parent="1">
          <mxGeometry x="4320" y="160" width="160" height="60" as="geometry" />
        </mxCell>
        <mxCell id="AAdFp3yC4sRfmH3a8Seg-58" value="NotImplemented&lt;br&gt;True(deprecated)" style="whiteSpace=wrap;html=1;fontFamily=Courier New;" vertex="1" parent="1">
          <mxGeometry x="4320" y="260" width="160" height="60" as="geometry" />
        </mxCell>
        <mxCell id="AAdFp3yC4sRfmH3a8Seg-59" style="edgeStyle=orthogonalEdgeStyle;rounded=0;orthogonalLoop=1;jettySize=auto;html=1;exitX=0.5;exitY=1;exitDx=0;exitDy=0;entryX=0.5;entryY=0;entryDx=0;entryDy=0;fontFamily=Courier New;" edge="1" parent="1" source="AAdFp3yC4sRfmH3a8Seg-60" target="AAdFp3yC4sRfmH3a8Seg-61">
          <mxGeometry relative="1" as="geometry" />
        </mxCell>
        <mxCell id="AAdFp3yC4sRfmH3a8Seg-60" value="ellipsis" style="whiteSpace=wrap;html=1;fontFamily=Courier New;" vertex="1" parent="1">
          <mxGeometry x="4520" y="160" width="120" height="60" as="geometry" />
        </mxCell>
        <mxCell id="AAdFp3yC4sRfmH3a8Seg-61" value="Ellipsis(...)&lt;br&gt;True" style="whiteSpace=wrap;html=1;fontFamily=Courier New;" vertex="1" parent="1">
          <mxGeometry x="4520" y="260" width="120" height="60" as="geometry" />
        </mxCell>
        <mxCell id="AAdFp3yC4sRfmH3a8Seg-62" style="edgeStyle=orthogonalEdgeStyle;rounded=0;orthogonalLoop=1;jettySize=auto;html=1;exitX=0.5;exitY=1;exitDx=0;exitDy=0;entryX=0.5;entryY=0;entryDx=0;entryDy=0;fontFamily=Courier New;" edge="1" parent="1" source="AAdFp3yC4sRfmH3a8Seg-65" target="AAdFp3yC4sRfmH3a8Seg-68">
          <mxGeometry relative="1" as="geometry" />
        </mxCell>
        <mxCell id="AAdFp3yC4sRfmH3a8Seg-63" style="edgeStyle=orthogonalEdgeStyle;rounded=0;orthogonalLoop=1;jettySize=auto;html=1;exitX=0.5;exitY=1;exitDx=0;exitDy=0;fontFamily=Courier New;" edge="1" parent="1" source="AAdFp3yC4sRfmH3a8Seg-65" target="AAdFp3yC4sRfmH3a8Seg-71">
          <mxGeometry relative="1" as="geometry" />
        </mxCell>
        <mxCell id="AAdFp3yC4sRfmH3a8Seg-64" style="edgeStyle=orthogonalEdgeStyle;rounded=0;orthogonalLoop=1;jettySize=auto;html=1;exitX=0.5;exitY=1;exitDx=0;exitDy=0;entryX=0.5;entryY=0;entryDx=0;entryDy=0;fontFamily=Courier New;" edge="1" parent="1" source="AAdFp3yC4sRfmH3a8Seg-65" target="AAdFp3yC4sRfmH3a8Seg-75">
          <mxGeometry relative="1" as="geometry" />
        </mxCell>
        <mxCell id="AAdFp3yC4sRfmH3a8Seg-65" value="numbers.Number&lt;br&gt;immutable" style="whiteSpace=wrap;html=1;fontFamily=Courier New;" vertex="1" parent="1">
          <mxGeometry x="4680" y="160" width="120" height="60" as="geometry" />
        </mxCell>
        <mxCell id="AAdFp3yC4sRfmH3a8Seg-66" style="edgeStyle=orthogonalEdgeStyle;rounded=0;orthogonalLoop=1;jettySize=auto;html=1;exitX=0.5;exitY=1;exitDx=0;exitDy=0;entryX=0.5;entryY=0;entryDx=0;entryDy=0;fontFamily=Courier New;" edge="1" parent="1" source="AAdFp3yC4sRfmH3a8Seg-68" target="AAdFp3yC4sRfmH3a8Seg-69">
          <mxGeometry relative="1" as="geometry" />
        </mxCell>
        <mxCell id="AAdFp3yC4sRfmH3a8Seg-67" style="edgeStyle=orthogonalEdgeStyle;rounded=0;orthogonalLoop=1;jettySize=auto;html=1;exitX=0.5;exitY=1;exitDx=0;exitDy=0;fontFamily=Courier New;" edge="1" parent="1" source="AAdFp3yC4sRfmH3a8Seg-68" target="AAdFp3yC4sRfmH3a8Seg-72">
          <mxGeometry relative="1" as="geometry" />
        </mxCell>
        <mxCell id="AAdFp3yC4sRfmH3a8Seg-68" value="numbers.Integral" style="whiteSpace=wrap;html=1;fontFamily=Courier New;" vertex="1" parent="1">
          <mxGeometry x="4680" y="260" width="120" height="60" as="geometry" />
        </mxCell>
        <mxCell id="AAdFp3yC4sRfmH3a8Seg-69" value="int" style="whiteSpace=wrap;html=1;fontFamily=Courier New;" vertex="1" parent="1">
          <mxGeometry x="4680" y="360" width="120" height="60" as="geometry" />
        </mxCell>
        <mxCell id="AAdFp3yC4sRfmH3a8Seg-70" style="edgeStyle=orthogonalEdgeStyle;rounded=0;orthogonalLoop=1;jettySize=auto;html=1;exitX=0.5;exitY=1;exitDx=0;exitDy=0;entryX=0.5;entryY=0;entryDx=0;entryDy=0;fontFamily=Courier New;" edge="1" parent="1" source="AAdFp3yC4sRfmH3a8Seg-71" target="AAdFp3yC4sRfmH3a8Seg-73">
          <mxGeometry relative="1" as="geometry" />
        </mxCell>
        <mxCell id="AAdFp3yC4sRfmH3a8Seg-71" value="numbers.Real" style="whiteSpace=wrap;html=1;fontFamily=Courier New;" vertex="1" parent="1">
          <mxGeometry x="5000" y="260" width="120" height="60" as="geometry" />
        </mxCell>
        <mxCell id="AAdFp3yC4sRfmH3a8Seg-72" value="bool" style="whiteSpace=wrap;html=1;fontFamily=Courier New;" vertex="1" parent="1">
          <mxGeometry x="4840" y="360" width="120" height="60" as="geometry" />
        </mxCell>
        <mxCell id="AAdFp3yC4sRfmH3a8Seg-73" value="float" style="whiteSpace=wrap;html=1;fontFamily=Courier New;" vertex="1" parent="1">
          <mxGeometry x="5000" y="360" width="120" height="60" as="geometry" />
        </mxCell>
        <mxCell id="AAdFp3yC4sRfmH3a8Seg-74" style="edgeStyle=orthogonalEdgeStyle;rounded=0;orthogonalLoop=1;jettySize=auto;html=1;exitX=0.5;exitY=1;exitDx=0;exitDy=0;entryX=0.5;entryY=0;entryDx=0;entryDy=0;fontFamily=Courier New;" edge="1" parent="1" source="AAdFp3yC4sRfmH3a8Seg-75" target="AAdFp3yC4sRfmH3a8Seg-76">
          <mxGeometry relative="1" as="geometry" />
        </mxCell>
        <mxCell id="AAdFp3yC4sRfmH3a8Seg-75" value="numbers.Complex" style="whiteSpace=wrap;html=1;fontFamily=Courier New;" vertex="1" parent="1">
          <mxGeometry x="5160" y="260" width="120" height="60" as="geometry" />
        </mxCell>
        <mxCell id="AAdFp3yC4sRfmH3a8Seg-76" value="complex" style="whiteSpace=wrap;html=1;fontFamily=Courier New;" vertex="1" parent="1">
          <mxGeometry x="5160" y="360" width="120" height="60" as="geometry" />
        </mxCell>
        <mxCell id="AAdFp3yC4sRfmH3a8Seg-77" style="edgeStyle=orthogonalEdgeStyle;rounded=0;orthogonalLoop=1;jettySize=auto;html=1;exitX=0.5;exitY=1;exitDx=0;exitDy=0;entryX=0.5;entryY=0;entryDx=0;entryDy=0;fontFamily=Courier New;" edge="1" parent="1" source="AAdFp3yC4sRfmH3a8Seg-79" target="AAdFp3yC4sRfmH3a8Seg-83">
          <mxGeometry relative="1" as="geometry" />
        </mxCell>
        <mxCell id="AAdFp3yC4sRfmH3a8Seg-78" style="edgeStyle=orthogonalEdgeStyle;rounded=0;orthogonalLoop=1;jettySize=auto;html=1;exitX=0.5;exitY=1;exitDx=0;exitDy=0;entryX=0.5;entryY=0;entryDx=0;entryDy=0;fontFamily=Courier New;" edge="1" parent="1" source="AAdFp3yC4sRfmH3a8Seg-79" target="AAdFp3yC4sRfmH3a8Seg-91">
          <mxGeometry relative="1" as="geometry" />
        </mxCell>
        <mxCell id="AAdFp3yC4sRfmH3a8Seg-79" value="Sequences" style="whiteSpace=wrap;html=1;fontFamily=Courier New;" vertex="1" parent="1">
          <mxGeometry x="5320" y="160" width="120" height="60" as="geometry" />
        </mxCell>
        <mxCell id="AAdFp3yC4sRfmH3a8Seg-80" style="edgeStyle=orthogonalEdgeStyle;rounded=0;orthogonalLoop=1;jettySize=auto;html=1;exitX=0.5;exitY=1;exitDx=0;exitDy=0;entryX=0.5;entryY=0;entryDx=0;entryDy=0;fontFamily=Courier New;" edge="1" parent="1" source="AAdFp3yC4sRfmH3a8Seg-83" target="AAdFp3yC4sRfmH3a8Seg-84">
          <mxGeometry relative="1" as="geometry" />
        </mxCell>
        <mxCell id="AAdFp3yC4sRfmH3a8Seg-81" style="edgeStyle=orthogonalEdgeStyle;rounded=0;orthogonalLoop=1;jettySize=auto;html=1;exitX=0.5;exitY=1;exitDx=0;exitDy=0;fontFamily=Courier New;" edge="1" parent="1" source="AAdFp3yC4sRfmH3a8Seg-83" target="AAdFp3yC4sRfmH3a8Seg-85">
          <mxGeometry relative="1" as="geometry" />
        </mxCell>
        <mxCell id="AAdFp3yC4sRfmH3a8Seg-82" style="edgeStyle=orthogonalEdgeStyle;rounded=0;orthogonalLoop=1;jettySize=auto;html=1;exitX=0.5;exitY=1;exitDx=0;exitDy=0;entryX=0.5;entryY=0;entryDx=0;entryDy=0;fontFamily=Courier New;" edge="1" parent="1" source="AAdFp3yC4sRfmH3a8Seg-83" target="AAdFp3yC4sRfmH3a8Seg-86">
          <mxGeometry relative="1" as="geometry" />
        </mxCell>
        <mxCell id="AAdFp3yC4sRfmH3a8Seg-83" value="Immutable Sequences" style="whiteSpace=wrap;html=1;fontFamily=Courier New;" vertex="1" parent="1">
          <mxGeometry x="5320" y="260" width="120" height="60" as="geometry" />
        </mxCell>
        <mxCell id="AAdFp3yC4sRfmH3a8Seg-84" value="string" style="whiteSpace=wrap;html=1;fontFamily=Courier New;" vertex="1" parent="1">
          <mxGeometry x="5320" y="360" width="120" height="60" as="geometry" />
        </mxCell>
        <mxCell id="AAdFp3yC4sRfmH3a8Seg-85" value="tuple" style="whiteSpace=wrap;html=1;fontFamily=Courier New;" vertex="1" parent="1">
          <mxGeometry x="5480" y="360" width="120" height="60" as="geometry" />
        </mxCell>
        <mxCell id="AAdFp3yC4sRfmH3a8Seg-86" value="bytes" style="whiteSpace=wrap;html=1;fontFamily=Courier New;" vertex="1" parent="1">
          <mxGeometry x="5640" y="360" width="120" height="60" as="geometry" />
        </mxCell>
        <mxCell id="AAdFp3yC4sRfmH3a8Seg-87" style="edgeStyle=orthogonalEdgeStyle;rounded=0;orthogonalLoop=1;jettySize=auto;html=1;exitX=0.5;exitY=1;exitDx=0;exitDy=0;fontFamily=Courier New;" edge="1" parent="1" source="AAdFp3yC4sRfmH3a8Seg-91" target="AAdFp3yC4sRfmH3a8Seg-92">
          <mxGeometry relative="1" as="geometry" />
        </mxCell>
        <mxCell id="AAdFp3yC4sRfmH3a8Seg-88" style="edgeStyle=orthogonalEdgeStyle;rounded=0;orthogonalLoop=1;jettySize=auto;html=1;exitX=0.5;exitY=1;exitDx=0;exitDy=0;entryX=0.5;entryY=0;entryDx=0;entryDy=0;fontFamily=Courier New;" edge="1" parent="1" source="AAdFp3yC4sRfmH3a8Seg-91" target="AAdFp3yC4sRfmH3a8Seg-93">
          <mxGeometry relative="1" as="geometry" />
        </mxCell>
        <mxCell id="AAdFp3yC4sRfmH3a8Seg-89" style="edgeStyle=orthogonalEdgeStyle;rounded=0;orthogonalLoop=1;jettySize=auto;html=1;exitX=0.5;exitY=1;exitDx=0;exitDy=0;fontFamily=Courier New;" edge="1" parent="1" source="AAdFp3yC4sRfmH3a8Seg-91" target="AAdFp3yC4sRfmH3a8Seg-94">
          <mxGeometry relative="1" as="geometry" />
        </mxCell>
        <mxCell id="AAdFp3yC4sRfmH3a8Seg-90" style="edgeStyle=orthogonalEdgeStyle;rounded=0;orthogonalLoop=1;jettySize=auto;html=1;exitX=0.5;exitY=1;exitDx=0;exitDy=0;entryX=0.5;entryY=0;entryDx=0;entryDy=0;fontFamily=Courier New;" edge="1" parent="1" source="AAdFp3yC4sRfmH3a8Seg-91" target="AAdFp3yC4sRfmH3a8Seg-95">
          <mxGeometry relative="1" as="geometry" />
        </mxCell>
        <mxCell id="AAdFp3yC4sRfmH3a8Seg-91" value="Mutable Sequences" style="whiteSpace=wrap;html=1;fontFamily=Courier New;" vertex="1" parent="1">
          <mxGeometry x="5800" y="260" width="120" height="60" as="geometry" />
        </mxCell>
        <mxCell id="AAdFp3yC4sRfmH3a8Seg-92" value="list" style="whiteSpace=wrap;html=1;fontFamily=Courier New;" vertex="1" parent="1">
          <mxGeometry x="5800" y="360" width="120" height="60" as="geometry" />
        </mxCell>
        <mxCell id="AAdFp3yC4sRfmH3a8Seg-93" value="bytearray" style="whiteSpace=wrap;html=1;fontFamily=Courier New;" vertex="1" parent="1">
          <mxGeometry x="5960" y="360" width="120" height="60" as="geometry" />
        </mxCell>
        <mxCell id="AAdFp3yC4sRfmH3a8Seg-94" value="array.array" style="whiteSpace=wrap;html=1;fontFamily=Courier New;" vertex="1" parent="1">
          <mxGeometry x="6120" y="360" width="120" height="60" as="geometry" />
        </mxCell>
        <mxCell id="AAdFp3yC4sRfmH3a8Seg-95" value="collections" style="whiteSpace=wrap;html=1;fontFamily=Courier New;" vertex="1" parent="1">
          <mxGeometry x="6280" y="360" width="120" height="60" as="geometry" />
        </mxCell>
        <mxCell id="AAdFp3yC4sRfmH3a8Seg-96" style="edgeStyle=orthogonalEdgeStyle;rounded=0;orthogonalLoop=1;jettySize=auto;html=1;exitX=0.5;exitY=1;exitDx=0;exitDy=0;entryX=0.5;entryY=0;entryDx=0;entryDy=0;fontFamily=Courier New;" edge="1" parent="1" source="AAdFp3yC4sRfmH3a8Seg-98" target="AAdFp3yC4sRfmH3a8Seg-99">
          <mxGeometry relative="1" as="geometry" />
        </mxCell>
        <mxCell id="AAdFp3yC4sRfmH3a8Seg-97" style="edgeStyle=orthogonalEdgeStyle;rounded=0;orthogonalLoop=1;jettySize=auto;html=1;exitX=0.5;exitY=1;exitDx=0;exitDy=0;fontFamily=Courier New;" edge="1" parent="1" source="AAdFp3yC4sRfmH3a8Seg-98" target="AAdFp3yC4sRfmH3a8Seg-100">
          <mxGeometry relative="1" as="geometry" />
        </mxCell>
        <mxCell id="AAdFp3yC4sRfmH3a8Seg-98" value="set" style="whiteSpace=wrap;html=1;fontFamily=Courier New;" vertex="1" parent="1">
          <mxGeometry x="6440" y="160" width="120" height="60" as="geometry" />
        </mxCell>
        <mxCell id="AAdFp3yC4sRfmH3a8Seg-99" value="set" style="whiteSpace=wrap;html=1;fontFamily=Courier New;" vertex="1" parent="1">
          <mxGeometry x="6440" y="260" width="120" height="60" as="geometry" />
        </mxCell>
        <mxCell id="AAdFp3yC4sRfmH3a8Seg-100" value="frozenset" style="whiteSpace=wrap;html=1;fontFamily=Courier New;" vertex="1" parent="1">
          <mxGeometry x="6600" y="260" width="120" height="60" as="geometry" />
        </mxCell>
        <mxCell id="AAdFp3yC4sRfmH3a8Seg-101" style="edgeStyle=orthogonalEdgeStyle;rounded=0;orthogonalLoop=1;jettySize=auto;html=1;exitX=0.5;exitY=1;exitDx=0;exitDy=0;entryX=0.5;entryY=0;entryDx=0;entryDy=0;fontFamily=Courier New;" edge="1" parent="1" source="AAdFp3yC4sRfmH3a8Seg-102" target="AAdFp3yC4sRfmH3a8Seg-103">
          <mxGeometry relative="1" as="geometry" />
        </mxCell>
        <mxCell id="AAdFp3yC4sRfmH3a8Seg-102" value="mappings" style="whiteSpace=wrap;html=1;fontFamily=Courier New;" vertex="1" parent="1">
          <mxGeometry x="6760" y="160" width="120" height="60" as="geometry" />
        </mxCell>
        <mxCell id="AAdFp3yC4sRfmH3a8Seg-103" value="dict" style="whiteSpace=wrap;html=1;fontFamily=Courier New;" vertex="1" parent="1">
          <mxGeometry x="6760" y="260" width="120" height="60" as="geometry" />
        </mxCell>
        <mxCell id="AAdFp3yC4sRfmH3a8Seg-104" value="callable" style="whiteSpace=wrap;html=1;fontFamily=Courier New;" vertex="1" parent="1">
          <mxGeometry x="6920" y="160" width="120" height="60" as="geometry" />
        </mxCell>
        <mxCell id="AAdFp3yC4sRfmH3a8Seg-105" value="module" style="whiteSpace=wrap;html=1;fontFamily=Courier New;" vertex="1" parent="1">
          <mxGeometry x="7080" y="160" width="120" height="60" as="geometry" />
        </mxCell>
        <mxCell id="AAdFp3yC4sRfmH3a8Seg-106" value="custom classes" style="whiteSpace=wrap;html=1;fontFamily=Courier New;" vertex="1" parent="1">
          <mxGeometry x="7240" y="160" width="120" height="60" as="geometry" />
        </mxCell>
        <mxCell id="AAdFp3yC4sRfmH3a8Seg-107" value="class instances" style="whiteSpace=wrap;html=1;fontFamily=Courier New;" vertex="1" parent="1">
          <mxGeometry x="7400" y="160" width="120" height="60" as="geometry" />
        </mxCell>
        <mxCell id="AAdFp3yC4sRfmH3a8Seg-108" value="I/O objects" style="whiteSpace=wrap;html=1;fontFamily=Courier New;" vertex="1" parent="1">
          <mxGeometry x="7560" y="160" width="120" height="60" as="geometry" />
        </mxCell>
        <mxCell id="AAdFp3yC4sRfmH3a8Seg-109" style="edgeStyle=orthogonalEdgeStyle;rounded=0;orthogonalLoop=1;jettySize=auto;html=1;exitX=0.5;exitY=1;exitDx=0;exitDy=0;entryX=0.5;entryY=0;entryDx=0;entryDy=0;fontFamily=Courier New;" edge="1" parent="1" source="AAdFp3yC4sRfmH3a8Seg-115" target="AAdFp3yC4sRfmH3a8Seg-116">
          <mxGeometry relative="1" as="geometry" />
        </mxCell>
        <mxCell id="AAdFp3yC4sRfmH3a8Seg-110" style="edgeStyle=orthogonalEdgeStyle;rounded=0;orthogonalLoop=1;jettySize=auto;html=1;exitX=0.5;exitY=1;exitDx=0;exitDy=0;entryX=0.5;entryY=0;entryDx=0;entryDy=0;fontFamily=Courier New;" edge="1" parent="1" source="AAdFp3yC4sRfmH3a8Seg-115" target="AAdFp3yC4sRfmH3a8Seg-117">
          <mxGeometry relative="1" as="geometry" />
        </mxCell>
        <mxCell id="AAdFp3yC4sRfmH3a8Seg-111" style="edgeStyle=orthogonalEdgeStyle;rounded=0;orthogonalLoop=1;jettySize=auto;html=1;exitX=0.5;exitY=1;exitDx=0;exitDy=0;fontFamily=Courier New;" edge="1" parent="1" source="AAdFp3yC4sRfmH3a8Seg-115" target="AAdFp3yC4sRfmH3a8Seg-120">
          <mxGeometry relative="1" as="geometry" />
        </mxCell>
        <mxCell id="AAdFp3yC4sRfmH3a8Seg-112" style="edgeStyle=orthogonalEdgeStyle;rounded=0;orthogonalLoop=1;jettySize=auto;html=1;exitX=0.5;exitY=1;exitDx=0;exitDy=0;fontFamily=Courier New;" edge="1" parent="1" source="AAdFp3yC4sRfmH3a8Seg-115" target="AAdFp3yC4sRfmH3a8Seg-121">
          <mxGeometry relative="1" as="geometry" />
        </mxCell>
        <mxCell id="AAdFp3yC4sRfmH3a8Seg-113" style="edgeStyle=orthogonalEdgeStyle;rounded=0;orthogonalLoop=1;jettySize=auto;html=1;exitX=0.5;exitY=1;exitDx=0;exitDy=0;fontFamily=Courier New;" edge="1" parent="1" source="AAdFp3yC4sRfmH3a8Seg-115" target="AAdFp3yC4sRfmH3a8Seg-122">
          <mxGeometry relative="1" as="geometry" />
        </mxCell>
        <mxCell id="AAdFp3yC4sRfmH3a8Seg-114" style="edgeStyle=orthogonalEdgeStyle;rounded=0;orthogonalLoop=1;jettySize=auto;html=1;exitX=0.5;exitY=1;exitDx=0;exitDy=0;fontFamily=Courier New;" edge="1" parent="1" source="AAdFp3yC4sRfmH3a8Seg-115" target="AAdFp3yC4sRfmH3a8Seg-123">
          <mxGeometry relative="1" as="geometry" />
        </mxCell>
        <mxCell id="AAdFp3yC4sRfmH3a8Seg-115" value="internal types" style="whiteSpace=wrap;html=1;fontFamily=Courier New;" vertex="1" parent="1">
          <mxGeometry x="7720" y="160" width="120" height="60" as="geometry" />
        </mxCell>
        <mxCell id="AAdFp3yC4sRfmH3a8Seg-116" value="code objects" style="whiteSpace=wrap;html=1;fontFamily=Courier New;" vertex="1" parent="1">
          <mxGeometry x="7720" y="260" width="120" height="60" as="geometry" />
        </mxCell>
        <mxCell id="AAdFp3yC4sRfmH3a8Seg-117" value="frame objects" style="whiteSpace=wrap;html=1;fontFamily=Courier New;" vertex="1" parent="1">
          <mxGeometry x="7880" y="260" width="120" height="60" as="geometry" />
        </mxCell>
        <mxCell id="AAdFp3yC4sRfmH3a8Seg-118" value="traceback objects" style="whiteSpace=wrap;html=1;fontFamily=Courier New;" vertex="1" parent="1">
          <mxGeometry x="8040" y="360" width="160" height="60" as="geometry" />
        </mxCell>
        <mxCell id="AAdFp3yC4sRfmH3a8Seg-119" style="edgeStyle=orthogonalEdgeStyle;rounded=0;orthogonalLoop=1;jettySize=auto;html=1;exitX=0.5;exitY=1;exitDx=0;exitDy=0;entryX=0.5;entryY=0;entryDx=0;entryDy=0;fontFamily=Courier New;" edge="1" parent="1" source="AAdFp3yC4sRfmH3a8Seg-120" target="AAdFp3yC4sRfmH3a8Seg-118">
          <mxGeometry relative="1" as="geometry" />
        </mxCell>
        <mxCell id="AAdFp3yC4sRfmH3a8Seg-120" value="types.TracebackType" style="whiteSpace=wrap;html=1;fontFamily=Courier New;" vertex="1" parent="1">
          <mxGeometry x="8040" y="260" width="160" height="60" as="geometry" />
        </mxCell>
        <mxCell id="AAdFp3yC4sRfmH3a8Seg-121" value="slice objects" style="whiteSpace=wrap;html=1;fontFamily=Courier New;" vertex="1" parent="1">
          <mxGeometry x="8240" y="260" width="120" height="60" as="geometry" />
        </mxCell>
        <mxCell id="AAdFp3yC4sRfmH3a8Seg-122" value="static method objects" style="whiteSpace=wrap;html=1;fontFamily=Courier New;" vertex="1" parent="1">
          <mxGeometry x="8400" y="260" width="120" height="60" as="geometry" />
        </mxCell>
        <mxCell id="AAdFp3yC4sRfmH3a8Seg-123" value="class method objects" style="whiteSpace=wrap;html=1;fontFamily=Courier New;" vertex="1" parent="1">
          <mxGeometry x="8560" y="260" width="120" height="60" as="geometry" />
        </mxCell>
      </root>
    </mxGraphModel>
  </diagram>
</mxfile>
